#!OML:ASF H:\Dans Jumps\Project 1\Capture day 1\Session 1\subject.ASF
:FULLY-SPECIFIED
:DEGREES
336
root 0.674126 17.6383 -14.6982 9.68289 -1.45957 -0.77242
lowerback 2.03779 -0.12551 -0.133173
upperback 6.16207 -0.229389 1.45013
thorax 5.23293 -0.162566 1.57051
lowerneck -11.8205 0.580918 -2.18333
upperneck 34.7973 0.875137 1.54635
head 13.7356 0.292419 1.13315
rclavicle 3.57812e-015 -4.57205e-015
rhumerus -18.7411 7.71938 -89.8032
rradius 29.2899
rwrist 27.4553
rhand -13.3812 -24.9178
rfingers 7.12502
rthumb 12.7258 -54.51
lclavicle 3.57812e-015 -4.57205e-015
lhumerus -18.9984 -30.1279 97.6239
lradius 26.0374
lwrist 18.436
lhand -17.501 -0.42876
lfingers 7.12502
lthumb 8.75186 29.3698
rfemur -21.4566 -2.7789 19.0467
rtibia 24.7389
rfoot -11.7889 -4.16346
rtoes 12.183
lfemur -19.6745 6.82872 -20.0425
ltibia 20.8155
lfoot -9.15242 5.41854
ltoes 7.73432
337
root 0.675655 17.6362 -14.6967 9.64345 -1.49774 -0.782263
lowerback 2.04192 -0.118023 -0.124416
upperback 6.17312 -0.21947 1.44523
thorax 5.24189 -0.157183 1.56082
lowerneck -11.8317 0.580689 -2.19896
upperneck 34.8438 0.881774 1.53924
head 13.7587 0.291828 1.13481
rclavicle -8.24956e-015 7.95139e-016
rhumerus -18.6666 7.58021 -89.8195
rradius 29.2179
rwrist 27.5561
rhand -13.4631 -24.9417
rfingers 7.12502
rthumb 12.6468 -54.5388
lclavicle -8.24956e-015 7.95139e-016
lhumerus -18.9574 -30.0514 97.5949
lradius 26.0363
lwrist 18.3437
lhand -17.5285 -0.429043
lfingers 7.12502
lthumb 8.72537 29.3706
rfemur -21.4415 -2.74893 19.0483
rtibia 24.7919
rfoot -11.8104 -4.16407
rtoes 12.1499
lfemur -19.6573 6.8415 -20.0332
ltibia 20.8851
lfoot -9.18147 5.4511
ltoes 7.72703
338
root 0.677163 17.6343 -14.6951 9.61038 -1.53432 -0.790638
lowerback 2.04135 -0.111938 -0.120071
upperback 6.18148 -0.211452 1.44238
thorax 5.25077 -0.153003 1.55567
lowerneck -11.8383 0.586899 -2.20369
upperneck 34.8868 0.898549 1.52141
head 13.7792 0.295651 1.13166
rclavicle 1.88845e-015 -1.23246e-014
rhumerus -18.5976 7.45979 -89.8379
rradius 29.1528
rwrist 27.6534
rhand -13.5491 -24.9819
rfingers 7.12502
rthumb 12.5639 -54.5841
lclavicle 1.88845e-015 -1.23246e-014
lhumerus -18.9142 -29.9616 97.5651
lradius 26.0307
lwrist 18.2022
lhand -17.6001 -0.495417
lfingers 7.12502
lthumb 8.6563 29.3071
rfemur -21.4311 -2.72456 19.0492
rtibia 24.8419
rfoot -11.8304 -4.16174
rtoes 12.1164
lfemur -19.6439 6.85456 -20.0265
ltibia 20.9491
lfoot -9.20908 5.48197
ltoes 7.72165
339
root 0.678628 17.6326 -14.6934 9.58197 -1.56774 -0.795788
lowerback 2.03781 -0.107703 -0.121378
upperback 6.18762 -0.205863 1.44052
thorax 5.25911 -0.15032 1.55464
lowerneck -11.8538 0.586551 -2.21556
upperneck 34.9392 0.906897 1.50624
head 13.8061 0.295137 1.1298
rclavicle 4.67144e-015 3.57812e-015
rhumerus -18.536 7.3591 -89.86
rradius 29.0957
rwrist 27.7397
rhand -13.6389 -25.0359
rfingers 7.12502
rthumb 12.4773 -54.6434
lclavicle 4.67144e-015 3.57812e-015
lhumerus -18.8718 -29.8669 97.5357
lradius 26.0201
lwrist 18.0235
lhand -17.6995 -0.609204
lfingers 7.12502
lthumb 8.56035 29.1973
rfemur -21.4229 -2.70464 19.0471
rtibia 24.888
rfoot -11.85 -4.15877
rtoes 12.0842
lfemur -19.6322 6.86438 -20.0235
ltibia 21.0065
lfoot -9.23362 5.51315
ltoes 7.71155
340
root 0.680066 17.6311 -14.6916 9.55872 -1.59589 -0.797517
lowerback 2.03207 -0.105764 -0.128067
upperback 6.19101 -0.203305 1.44007
thorax 5.26593 -0.149425 1.55801
lowerneck -11.8528 0.601356 -2.19935
upperneck 34.973 0.938222 1.46623
head 13.8207 0.30513 1.11599
rclavicle -3.97569e-015 3.57812e-015
rhumerus -18.4814 7.27943 -89.8834
rradius 29.0464
rwrist 27.8149
rhand -13.7291 -25.0947
rfingers 7.12502
rthumb 12.3903 -54.7075
lclavicle -3.97569e-015 3.57812e-015
lhumerus -18.8287 -29.7663 97.5078
lradius 26.0037
lwrist 17.8212
lhand -17.8165 -0.762068
lfingers 7.12502
lthumb 8.44743 29.049
rfemur -21.4164 -2.69181 19.0422
rtibia 24.9288
rfoot -11.8688 -4.15381
rtoes 12.0623
lfemur -19.6223 6.87119 -20.0245
ltibia 21.0567
lfoot -9.25786 5.54127
ltoes 7.70581
341
root 0.681472 17.6298 -14.6896 9.53959 -1.61996 -0.799669
lowerback 2.02316 -0.105306 -0.135451
upperback 6.19383 -0.20278 1.44097
thorax 5.27401 -0.149613 1.56311
lowerneck -11.8532 0.620603 -2.17671
upperneck 35.002 0.975621 1.42272
head 13.8335 0.318167 1.10048
rclavicle 1.88845e-015 -1.05356e-014
rhumerus -18.4305 7.22072 -89.9091
rradius 29.0041
rwrist 27.8763
rhand -13.8173 -25.1564
rfingers 7.12502
rthumb 12.3053 -54.7743
lclavicle 1.88845e-015 -1.05356e-014
lhumerus -18.7831 -29.6668 97.4793
lradius 25.9839
lwrist 17.614
lhand -17.9245 -0.915516
lfingers 7.12502
lthumb 8.34316 28.8997
rfemur -21.4101 -2.68354 19.0384
rtibia 24.9628
rfoot -11.8855 -4.14746
rtoes 12.0415
lfemur -19.6134 6.87584 -20.0252
ltibia 21.1008
lfoot -9.28006 5.56756
ltoes 7.69088
